<svg width="101" height="48" viewBox="0 0 101 48" fill="none" xmlns="http://www.w3.org/2000/svg">
<path d="M35.6961 3.66251L33 0.966431H49.9118V12.437L47.2157 9.74094V3.66251H35.6961Z" fill="#E33453"/>
<path d="M65.3039 3.66251L68 0.966431H51.0882V12.437L53.7843 9.74094V3.66251H65.3039Z" fill="#E33453"/>
<path d="M39.8627 7.63295L37.2647 5.03491H45.8922V9.4957L50.549 14.1526L55.2059 9.4957V5.03491H63.7843L61.1863 7.63295H58.049V10.6722L50.549 18.1722L43.049 10.6722V7.63295H39.8627Z" fill="#E33453"/>
<path d="M1.51756 36V25.35H8.74756V27.51H3.97756V29.805H7.90756V31.8H3.97756V36H1.51756ZM8.82561 33.645C8.82561 33.125 8.97061 32.67 9.26061 32.28C9.55061 31.89 9.95061 31.585 10.4606 31.365C10.9706 31.135 11.5556 31.02 12.2156 31.02C12.5356 31.02 12.8506 31.05 13.1606 31.11C13.4706 31.16 13.7406 31.235 13.9706 31.335V30.99C13.9706 30.56 13.8406 30.23 13.5806 30C13.3206 29.77 12.9256 29.655 12.3956 29.655C11.9556 29.655 11.5406 29.73 11.1506 29.88C10.7706 30.03 10.3656 30.245 9.93561 30.525L9.21561 28.995C9.73561 28.655 10.2756 28.4 10.8356 28.23C11.4056 28.06 12.0056 27.975 12.6356 27.975C13.8156 27.975 14.7306 28.26 15.3806 28.83C16.0406 29.39 16.3706 30.205 16.3706 31.275V33.33C16.3706 33.57 16.4056 33.74 16.4756 33.84C16.5556 33.93 16.6906 33.985 16.8806 34.005V36C16.6806 36.04 16.4906 36.07 16.3106 36.09C16.1406 36.11 15.9906 36.12 15.8606 36.12C15.4106 36.12 15.0656 36.03 14.8256 35.85C14.5956 35.67 14.4506 35.425 14.3906 35.115L14.3456 34.77C13.9956 35.22 13.5756 35.565 13.0856 35.805C12.6056 36.035 12.1006 36.15 11.5706 36.15C11.0506 36.15 10.5806 36.04 10.1606 35.82C9.75061 35.6 9.42561 35.3 9.18561 34.92C8.94561 34.54 8.82561 34.115 8.82561 33.645ZM13.5956 33.945C13.7056 33.855 13.7956 33.755 13.8656 33.645C13.9356 33.535 13.9706 33.43 13.9706 33.33V32.625C13.7706 32.545 13.5456 32.485 13.2956 32.445C13.0556 32.395 12.8306 32.37 12.6206 32.37C12.1806 32.37 11.8156 32.47 11.5256 32.67C11.2356 32.86 11.0906 33.115 11.0906 33.435C11.0906 33.615 11.1406 33.78 11.2406 33.93C11.3406 34.08 11.4756 34.2 11.6456 34.29C11.8256 34.38 12.0356 34.425 12.2756 34.425C12.5156 34.425 12.7556 34.38 12.9956 34.29C13.2356 34.2 13.4356 34.085 13.5956 33.945ZM13.4156 27.42L11.8856 27L12.6656 25.05H14.8406L13.4156 27.42ZM22.8347 36.15C22.2347 36.15 21.7097 36.025 21.2597 35.775C20.8097 35.515 20.4547 35.155 20.1947 34.695V36H18.1097V25.05H20.5097V29.415C20.7697 28.955 21.1147 28.6 21.5447 28.35C21.9847 28.1 22.4997 27.975 23.0897 27.975C23.5897 27.975 24.0447 28.085 24.4547 28.305C24.8747 28.515 25.2347 28.81 25.5347 29.19C25.8447 29.56 26.0847 29.995 26.2547 30.495C26.4247 30.985 26.5097 31.52 26.5097 32.1C26.5097 32.67 26.4147 33.2 26.2247 33.69C26.0447 34.18 25.7897 34.61 25.4597 34.98C25.1297 35.35 24.7397 35.64 24.2897 35.85C23.8497 36.05 23.3647 36.15 22.8347 36.15ZM22.1597 34.125C22.4297 34.125 22.6797 34.075 22.9097 33.975C23.1497 33.865 23.3547 33.72 23.5247 33.54C23.6947 33.36 23.8247 33.15 23.9147 32.91C24.0047 32.66 24.0497 32.39 24.0497 32.1C24.0497 31.73 23.9747 31.385 23.8247 31.065C23.6747 30.745 23.4647 30.49 23.1947 30.3C22.9347 30.11 22.6297 30.015 22.2797 30.015C22.0297 30.015 21.7897 30.075 21.5597 30.195C21.3297 30.315 21.1247 30.48 20.9447 30.69C20.7647 30.89 20.6197 31.12 20.5097 31.38V33.03C20.5897 33.2 20.6897 33.355 20.8097 33.495C20.9297 33.625 21.0597 33.735 21.1997 33.825C21.3497 33.915 21.5047 33.99 21.6647 34.05C21.8347 34.1 21.9997 34.125 22.1597 34.125ZM27.7044 36V28.125H30.1044V36H27.7044ZM27.7044 27.225V25.05H30.1044V27.225H27.7044ZM35.4974 36.15C34.8274 36.15 34.2274 36.04 33.6974 35.82C33.1774 35.6 32.7374 35.3 32.3774 34.92C32.0174 34.54 31.7424 34.105 31.5524 33.615C31.3724 33.125 31.2824 32.61 31.2824 32.07C31.2824 31.52 31.3724 31 31.5524 30.51C31.7424 30.02 32.0174 29.585 32.3774 29.205C32.7374 28.825 33.1774 28.525 33.6974 28.305C34.2274 28.085 34.8274 27.975 35.4974 27.975C36.1674 27.975 36.7624 28.085 37.2824 28.305C37.8024 28.525 38.2424 28.825 38.6024 29.205C38.9624 29.585 39.2374 30.02 39.4274 30.51C39.6174 31 39.7124 31.52 39.7124 32.07C39.7124 32.61 39.6174 33.125 39.4274 33.615C39.2374 34.105 38.9624 34.54 38.6024 34.92C38.2424 35.3 37.8024 35.6 37.2824 35.82C36.7624 36.04 36.1674 36.15 35.4974 36.15ZM33.7424 32.07C33.7424 32.48 33.8174 32.84 33.9674 33.15C34.1274 33.46 34.3374 33.7 34.5974 33.87C34.8574 34.04 35.1574 34.125 35.4974 34.125C35.8274 34.125 36.1224 34.04 36.3824 33.87C36.6524 33.69 36.8624 33.445 37.0124 33.135C37.1624 32.825 37.2374 32.47 37.2374 32.07C37.2374 31.66 37.1624 31.3 37.0124 30.99C36.8624 30.68 36.6524 30.44 36.3824 30.27C36.1224 30.1 35.8274 30.015 35.4974 30.015C35.1574 30.015 34.8574 30.1 34.5974 30.27C34.3374 30.44 34.1274 30.68 33.9674 30.99C33.8174 31.3 33.7424 31.66 33.7424 32.07ZM44.5986 36V25.35H51.8286V27.51H47.0586V29.805H50.9886V31.8H47.0586V36H44.5986ZM56.2546 36.15C55.5846 36.15 54.9896 36.045 54.4696 35.835C53.9496 35.615 53.5046 35.32 53.1346 34.95C52.7746 34.58 52.4996 34.155 52.3096 33.675C52.1196 33.185 52.0246 32.675 52.0246 32.145C52.0246 31.385 52.1896 30.695 52.5196 30.075C52.8596 29.445 53.3446 28.94 53.9746 28.56C54.6046 28.17 55.3646 27.975 56.2546 27.975C57.1446 27.975 57.8996 28.165 58.5196 28.545C59.1496 28.925 59.6296 29.425 59.9596 30.045C60.2896 30.655 60.4546 31.32 60.4546 32.04C60.4546 32.18 60.4446 32.32 60.4246 32.46C60.4146 32.59 60.4046 32.705 60.3946 32.805H54.5746C54.6046 33.155 54.6996 33.45 54.8596 33.69C55.0296 33.93 55.2446 34.115 55.5046 34.245C55.7646 34.365 56.0396 34.425 56.3296 34.425C56.6896 34.425 57.0246 34.34 57.3346 34.17C57.6546 34 57.8746 33.77 57.9946 33.48L60.0346 34.05C59.8346 34.46 59.5496 34.825 59.1796 35.145C58.8196 35.455 58.3896 35.7 57.8896 35.88C57.3996 36.06 56.8546 36.15 56.2546 36.15ZM54.5146 31.335H57.9346C57.8946 31.005 57.7996 30.72 57.6496 30.48C57.4996 30.23 57.2996 30.04 57.0496 29.91C56.7996 29.77 56.5246 29.7 56.2246 29.7C55.9146 29.7 55.6346 29.77 55.3846 29.91C55.1446 30.04 54.9496 30.23 54.7996 30.48C54.6496 30.72 54.5546 31.005 54.5146 31.335ZM66.5373 30.18C65.9573 30.18 65.4323 30.275 64.9623 30.465C64.4923 30.645 64.1523 30.915 63.9423 31.275V36H61.5423V28.125H63.7473V29.715C64.0173 29.185 64.3673 28.77 64.7973 28.47C65.2273 28.17 65.6773 28.015 66.1473 28.005C66.2573 28.005 66.3373 28.005 66.3873 28.005C66.4473 28.005 66.4973 28.01 66.5373 28.02V30.18ZM72.5431 30.18C71.9631 30.18 71.4381 30.275 70.9681 30.465C70.4981 30.645 70.1581 30.915 69.9481 31.275V36H67.5481V28.125H69.7531V29.715C70.0231 29.185 70.3731 28.77 70.8031 28.47C71.2331 28.17 71.6831 28.015 72.1531 28.005C72.2631 28.005 72.3431 28.005 72.3931 28.005C72.4531 28.005 72.5031 28.01 72.5431 28.02V30.18ZM77.2604 36.15C76.5904 36.15 75.9954 36.045 75.4754 35.835C74.9554 35.615 74.5104 35.32 74.1404 34.95C73.7804 34.58 73.5054 34.155 73.3154 33.675C73.1254 33.185 73.0304 32.675 73.0304 32.145C73.0304 31.385 73.1954 30.695 73.5254 30.075C73.8654 29.445 74.3504 28.94 74.9804 28.56C75.6104 28.17 76.3704 27.975 77.2604 27.975C78.1504 27.975 78.9054 28.165 79.5254 28.545C80.1554 28.925 80.6354 29.425 80.9654 30.045C81.2954 30.655 81.4604 31.32 81.4604 32.04C81.4604 32.18 81.4504 32.32 81.4304 32.46C81.4204 32.59 81.4104 32.705 81.4004 32.805H75.5804C75.6104 33.155 75.7054 33.45 75.8654 33.69C76.0354 33.93 76.2504 34.115 76.5104 34.245C76.7704 34.365 77.0454 34.425 77.3354 34.425C77.6954 34.425 78.0304 34.34 78.3404 34.17C78.6604 34 78.8804 33.77 79.0004 33.48L81.0404 34.05C80.8404 34.46 80.5554 34.825 80.1854 35.145C79.8254 35.455 79.3954 35.7 78.8954 35.88C78.4054 36.06 77.8604 36.15 77.2604 36.15ZM75.5204 31.335H78.9404C78.9004 31.005 78.8054 30.72 78.6554 30.48C78.5054 30.23 78.3054 30.04 78.0554 29.91C77.8054 29.77 77.5304 29.7 77.2304 29.7C76.9204 29.7 76.6404 29.77 76.3904 29.91C76.1504 30.04 75.9554 30.23 75.8054 30.48C75.6554 30.72 75.5604 31.005 75.5204 31.335ZM82.5481 36V28.125H84.9481V36H82.5481ZM82.5481 27.225V25.05H84.9481V27.225H82.5481ZM91.5861 30.18C91.0061 30.18 90.4811 30.275 90.0111 30.465C89.5411 30.645 89.2011 30.915 88.9911 31.275V36H86.5911V28.125H88.7961V29.715C89.0661 29.185 89.4161 28.77 89.8461 28.47C90.2761 28.17 90.7261 28.015 91.1961 28.005C91.3061 28.005 91.3861 28.005 91.4361 28.005C91.4961 28.005 91.5461 28.01 91.5861 28.02V30.18ZM92.0434 33.645C92.0434 33.125 92.1884 32.67 92.4784 32.28C92.7684 31.89 93.1684 31.585 93.6784 31.365C94.1884 31.135 94.7734 31.02 95.4334 31.02C95.7534 31.02 96.0684 31.05 96.3784 31.11C96.6884 31.16 96.9584 31.235 97.1884 31.335V30.99C97.1884 30.56 97.0584 30.23 96.7984 30C96.5384 29.77 96.1434 29.655 95.6134 29.655C95.1734 29.655 94.7584 29.73 94.3684 29.88C93.9884 30.03 93.5834 30.245 93.1534 30.525L92.4334 28.995C92.9534 28.655 93.4934 28.4 94.0534 28.23C94.6234 28.06 95.2234 27.975 95.8534 27.975C97.0334 27.975 97.9484 28.26 98.5984 28.83C99.2584 29.39 99.5884 30.205 99.5884 31.275V33.33C99.5884 33.57 99.6234 33.74 99.6934 33.84C99.7734 33.93 99.9084 33.985 100.098 34.005V36C99.8984 36.04 99.7084 36.07 99.5284 36.09C99.3584 36.11 99.2084 36.12 99.0784 36.12C98.6284 36.12 98.2834 36.03 98.0434 35.85C97.8134 35.67 97.6684 35.425 97.6084 35.115L97.5634 34.77C97.2134 35.22 96.7934 35.565 96.3034 35.805C95.8234 36.035 95.3184 36.15 94.7884 36.15C94.2684 36.15 93.7984 36.04 93.3784 35.82C92.9684 35.6 92.6434 35.3 92.4034 34.92C92.1634 34.54 92.0434 34.115 92.0434 33.645ZM96.8134 33.945C96.9234 33.855 97.0134 33.755 97.0834 33.645C97.1534 33.535 97.1884 33.43 97.1884 33.33V32.625C96.9884 32.545 96.7634 32.485 96.5134 32.445C96.2734 32.395 96.0484 32.37 95.8384 32.37C95.3984 32.37 95.0334 32.47 94.7434 32.67C94.4534 32.86 94.3084 33.115 94.3084 33.435C94.3084 33.615 94.3584 33.78 94.4584 33.93C94.5584 34.08 94.6934 34.2 94.8634 34.29C95.0434 34.38 95.2534 34.425 95.4934 34.425C95.7334 34.425 95.9734 34.38 96.2134 34.29C96.4534 34.2 96.6534 34.085 96.8134 33.945Z" fill="white"/>
<path d="M14.3568 46V38.9H17.2768C17.5768 38.9 17.8501 38.9633 18.0968 39.09C18.3501 39.2167 18.5701 39.3867 18.7568 39.6C18.9434 39.8067 19.0868 40.04 19.1868 40.3C19.2934 40.56 19.3468 40.8267 19.3468 41.1C19.3468 41.48 19.2601 41.84 19.0868 42.18C18.9201 42.5133 18.6868 42.7867 18.3868 43C18.0934 43.2133 17.7434 43.32 17.3368 43.32H14.8668V46H14.3568ZM14.8668 42.85H17.3168C17.6301 42.85 17.9001 42.7667 18.1268 42.6C18.3534 42.4333 18.5268 42.2167 18.6468 41.95C18.7668 41.6833 18.8268 41.4 18.8268 41.1C18.8268 40.7867 18.7534 40.5 18.6068 40.24C18.4668 39.9733 18.2768 39.76 18.0368 39.6C17.8034 39.44 17.5434 39.36 17.2568 39.36H14.8668V42.85ZM22.6398 46.1C22.2731 46.1 21.9331 46.03 21.6198 45.89C21.3065 45.7433 21.0331 45.5467 20.7998 45.3C20.5731 45.0467 20.3931 44.7567 20.2598 44.43C20.1331 44.0967 20.0698 43.7467 20.0698 43.38C20.0698 42.8867 20.1798 42.44 20.3998 42.04C20.6198 41.64 20.9231 41.32 21.3098 41.08C21.6965 40.8333 22.1298 40.71 22.6098 40.71C23.1031 40.71 23.5398 40.8333 23.9198 41.08C24.2998 41.3267 24.5998 41.6533 24.8198 42.06C25.0465 42.46 25.1598 42.9 25.1598 43.38C25.1598 43.42 25.1598 43.46 25.1598 43.5C25.1598 43.54 25.1565 43.5733 25.1498 43.6H20.5898C20.6165 43.9933 20.7265 44.35 20.9198 44.67C21.1131 44.99 21.3598 45.2433 21.6598 45.43C21.9665 45.61 22.2998 45.7 22.6598 45.7C23.0198 45.7 23.3598 45.6067 23.6798 45.42C23.9998 45.2333 24.2231 44.9933 24.3498 44.7L24.7898 44.82C24.6898 45.0667 24.5298 45.2867 24.3098 45.48C24.0965 45.6733 23.8431 45.8267 23.5498 45.94C23.2631 46.0467 22.9598 46.1 22.6398 46.1ZM20.5698 43.21H24.6798C24.6531 42.8033 24.5465 42.4433 24.3598 42.13C24.1731 41.8167 23.9265 41.57 23.6198 41.39C23.3198 41.21 22.9865 41.12 22.6198 41.12C22.2531 41.12 21.9198 41.21 21.6198 41.39C21.3198 41.57 21.0765 41.8167 20.8898 42.13C20.7031 42.4433 20.5965 42.8033 20.5698 43.21ZM28.8199 41.25C28.3532 41.2633 27.9432 41.4033 27.5899 41.67C27.2432 41.93 26.9999 42.29 26.8599 42.75V46H26.3599V40.8H26.8399V42.08C27.0199 41.7133 27.2599 41.4167 27.5599 41.19C27.8599 40.9567 28.1766 40.8233 28.5099 40.79C28.5766 40.7833 28.6366 40.78 28.6899 40.78C28.7432 40.78 28.7866 40.78 28.8199 40.78V41.25ZM31.5081 46.1C31.0948 46.1 30.7114 46.03 30.3581 45.89C30.0048 45.75 29.6948 45.5367 29.4281 45.25L29.6581 44.9C29.9448 45.1733 30.2348 45.3733 30.5281 45.5C30.8214 45.62 31.1414 45.68 31.4881 45.68C31.9348 45.68 32.2948 45.5867 32.5681 45.4C32.8481 45.2133 32.9881 44.9533 32.9881 44.62C32.9881 44.3933 32.9214 44.22 32.7881 44.1C32.6614 43.9733 32.4748 43.8733 32.2281 43.8C31.9881 43.72 31.6948 43.6367 31.3481 43.55C30.9948 43.4567 30.6948 43.36 30.4481 43.26C30.2081 43.16 30.0281 43.03 29.9081 42.87C29.7881 42.71 29.7281 42.4933 29.7281 42.22C29.7281 41.88 29.8114 41.6 29.9781 41.38C30.1514 41.1533 30.3814 40.9867 30.6681 40.88C30.9614 40.7667 31.2848 40.71 31.6381 40.71C32.0448 40.71 32.3981 40.7767 32.6981 40.91C33.0048 41.0433 33.2381 41.22 33.3981 41.44L33.1281 41.76C32.9614 41.5467 32.7448 41.39 32.4781 41.29C32.2114 41.1833 31.9181 41.13 31.5981 41.13C31.3581 41.13 31.1314 41.1633 30.9181 41.23C30.7048 41.2967 30.5314 41.4067 30.3981 41.56C30.2714 41.7067 30.2081 41.9067 30.2081 42.16C30.2081 42.36 30.2548 42.5167 30.3481 42.63C30.4481 42.7433 30.5948 42.8367 30.7881 42.91C30.9814 42.9767 31.2214 43.05 31.5081 43.13C31.9148 43.23 32.2648 43.3333 32.5581 43.44C32.8514 43.5467 33.0781 43.6867 33.2381 43.86C33.3981 44.0267 33.4781 44.2633 33.4781 44.57C33.4781 45.0433 33.2981 45.4167 32.9381 45.69C32.5781 45.9633 32.1014 46.1 31.5081 46.1ZM36.9332 46.1C36.5666 46.1 36.2266 46.03 35.9132 45.89C35.6066 45.75 35.3399 45.5567 35.1132 45.31C34.8866 45.0567 34.7099 44.7667 34.5832 44.44C34.4566 44.1133 34.3932 43.77 34.3932 43.41C34.3932 43.0433 34.4566 42.7 34.5832 42.38C34.7099 42.0533 34.8866 41.7667 35.1132 41.52C35.3466 41.2667 35.6166 41.07 35.9232 40.93C36.2366 40.7833 36.5732 40.71 36.9332 40.71C37.2932 40.71 37.6266 40.7833 37.9332 40.93C38.2399 41.07 38.5099 41.2667 38.7432 41.52C38.9766 41.7667 39.1566 42.0533 39.2832 42.38C39.4099 42.7 39.4732 43.0433 39.4732 43.41C39.4732 43.77 39.4099 44.1133 39.2832 44.44C39.1566 44.7667 38.9766 45.0567 38.7432 45.31C38.5166 45.5567 38.2466 45.75 37.9332 45.89C37.6266 46.03 37.2932 46.1 36.9332 46.1ZM34.8932 43.43C34.8932 43.8367 34.9832 44.21 35.1632 44.55C35.3499 44.8833 35.5966 45.15 35.9032 45.35C36.2099 45.55 36.5499 45.65 36.9232 45.65C37.2966 45.65 37.6366 45.55 37.9432 45.35C38.2566 45.1433 38.5032 44.87 38.6832 44.53C38.8699 44.1833 38.9632 43.8067 38.9632 43.4C38.9632 42.9933 38.8699 42.62 38.6832 42.28C38.5032 41.94 38.2566 41.67 37.9432 41.47C37.6366 41.2633 37.2999 41.16 36.9332 41.16C36.5599 41.16 36.2199 41.2633 35.9132 41.47C35.6066 41.6767 35.3599 41.95 35.1732 42.29C34.9866 42.63 34.8932 43.01 34.8932 43.43ZM45.0212 46H44.5212V43.1C44.5212 42.4333 44.4245 41.9467 44.2312 41.64C44.0445 41.3267 43.7445 41.17 43.3312 41.17C43.0379 41.17 42.7479 41.24 42.4612 41.38C42.1812 41.52 41.9345 41.7133 41.7212 41.96C41.5145 42.2 41.3645 42.4733 41.2712 42.78V46H40.7712V40.8H41.2412V42.04C41.3812 41.7733 41.5679 41.5433 41.8012 41.35C42.0345 41.15 42.2945 40.9933 42.5812 40.88C42.8679 40.7667 43.1645 40.71 43.4712 40.71C43.7579 40.71 43.9979 40.7633 44.1912 40.87C44.3912 40.97 44.5512 41.1167 44.6712 41.31C44.7979 41.5033 44.8879 41.7433 44.9412 42.03C44.9945 42.3167 45.0212 42.6433 45.0212 43.01V46ZM46.2029 44.5C46.2029 44.1867 46.2963 43.9167 46.4829 43.69C46.6696 43.4567 46.9263 43.2767 47.2529 43.15C47.5796 43.0167 47.9563 42.95 48.3829 42.95C48.6496 42.95 48.9263 42.9733 49.2129 43.02C49.4996 43.0667 49.7563 43.13 49.9829 43.21V42.72C49.9829 42.24 49.8429 41.8567 49.5629 41.57C49.2896 41.2833 48.9096 41.14 48.4229 41.14C48.1629 41.14 47.8929 41.1933 47.6129 41.3C47.3329 41.4067 47.0463 41.56 46.7529 41.76L46.5429 41.4C46.8829 41.1733 47.2096 41.0033 47.5229 40.89C47.8429 40.77 48.1596 40.71 48.4729 40.71C49.0929 40.71 49.5829 40.8933 49.9429 41.26C50.3029 41.6267 50.4829 42.1267 50.4829 42.76V45.34C50.4829 45.42 50.4996 45.48 50.5329 45.52C50.5729 45.56 50.6296 45.5833 50.7029 45.59V46C50.6429 46.0067 50.5929 46.01 50.5529 46.01C50.5129 46.01 50.4796 46.01 50.4529 46.01C50.3263 45.99 50.2263 45.9367 50.1529 45.85C50.0863 45.7633 50.0496 45.6667 50.0429 45.56V45.15C49.8029 45.45 49.4929 45.6833 49.1129 45.85C48.7396 46.0167 48.3463 46.1 47.9329 46.1C47.6063 46.1 47.3096 46.03 47.0429 45.89C46.7829 45.75 46.5763 45.56 46.4229 45.32C46.2763 45.0733 46.2029 44.8 46.2029 44.5ZM49.7829 44.93C49.8496 44.8433 49.8996 44.76 49.9329 44.68C49.9663 44.6 49.9829 44.5267 49.9829 44.46V43.6C49.7429 43.5067 49.4929 43.4367 49.2329 43.39C48.9729 43.3433 48.7063 43.32 48.4329 43.32C47.9129 43.32 47.4896 43.4233 47.1629 43.63C46.8429 43.8367 46.6829 44.1167 46.6829 44.47C46.6829 44.69 46.7396 44.8933 46.8529 45.08C46.9663 45.2667 47.1229 45.4167 47.3229 45.53C47.5296 45.6433 47.7663 45.7 48.0329 45.7C48.4063 45.7 48.7496 45.63 49.0629 45.49C49.3829 45.3433 49.6229 45.1567 49.7829 44.93ZM52.144 38.7H52.654V44.97C52.654 45.21 52.704 45.3767 52.804 45.47C52.904 45.5567 53.034 45.6 53.194 45.6C53.3007 45.6 53.4107 45.59 53.524 45.57C53.6374 45.55 53.7374 45.5233 53.824 45.49L53.924 45.9C53.8107 45.94 53.6707 45.9767 53.504 46.01C53.3374 46.0433 53.194 46.06 53.074 46.06C52.794 46.06 52.5674 45.9767 52.394 45.81C52.2274 45.6367 52.144 45.4067 52.144 45.12V38.7ZM61.9648 39.36H59.3648V46H58.8548V39.36H56.2548V38.9H61.9648V39.36ZM64.5027 41.25C64.036 41.2633 63.626 41.4033 63.2727 41.67C62.926 41.93 62.6827 42.29 62.5427 42.75V46H62.0427V40.8H62.5227V42.08C62.7027 41.7133 62.9427 41.4167 63.2427 41.19C63.5427 40.9567 63.8594 40.8233 64.1927 40.79C64.2594 40.7833 64.3194 40.78 64.3727 40.78C64.426 40.78 64.4694 40.78 64.5027 40.78V41.25ZM65.0818 44.5C65.0818 44.1867 65.1752 43.9167 65.3618 43.69C65.5485 43.4567 65.8052 43.2767 66.1318 43.15C66.4585 43.0167 66.8352 42.95 67.2618 42.95C67.5285 42.95 67.8052 42.9733 68.0918 43.02C68.3785 43.0667 68.6352 43.13 68.8618 43.21V42.72C68.8618 42.24 68.7218 41.8567 68.4418 41.57C68.1685 41.2833 67.7885 41.14 67.3018 41.14C67.0418 41.14 66.7718 41.1933 66.4918 41.3C66.2118 41.4067 65.9252 41.56 65.6318 41.76L65.4218 41.4C65.7618 41.1733 66.0885 41.0033 66.4018 40.89C66.7218 40.77 67.0385 40.71 67.3518 40.71C67.9718 40.71 68.4618 40.8933 68.8218 41.26C69.1818 41.6267 69.3618 42.1267 69.3618 42.76V45.34C69.3618 45.42 69.3785 45.48 69.4118 45.52C69.4518 45.56 69.5085 45.5833 69.5818 45.59V46C69.5218 46.0067 69.4718 46.01 69.4318 46.01C69.3918 46.01 69.3585 46.01 69.3318 46.01C69.2052 45.99 69.1052 45.9367 69.0318 45.85C68.9652 45.7633 68.9285 45.6667 68.9218 45.56V45.15C68.6818 45.45 68.3718 45.6833 67.9918 45.85C67.6185 46.0167 67.2252 46.1 66.8118 46.1C66.4852 46.1 66.1885 46.03 65.9218 45.89C65.6618 45.75 65.4552 45.56 65.3018 45.32C65.1552 45.0733 65.0818 44.8 65.0818 44.5ZM68.6618 44.93C68.7285 44.8433 68.7785 44.76 68.8118 44.68C68.8452 44.6 68.8618 44.5267 68.8618 44.46V43.6C68.6218 43.5067 68.3718 43.4367 68.1118 43.39C67.8518 43.3433 67.5852 43.32 67.3118 43.32C66.7918 43.32 66.3685 43.4233 66.0418 43.63C65.7218 43.8367 65.5618 44.1167 65.5618 44.47C65.5618 44.69 65.6185 44.8933 65.7318 45.08C65.8452 45.2667 66.0018 45.4167 66.2018 45.53C66.4085 45.6433 66.6452 45.7 66.9118 45.7C67.2852 45.7 67.6285 45.63 67.9418 45.49C68.2618 45.3433 68.5018 45.1567 68.6618 44.93ZM70.9829 46V40.8H71.4829V46H70.9829ZM70.9829 39.62V38.7H71.4829V39.62H70.9829ZM77.4032 46H76.9032V43.1C76.9032 42.4333 76.8066 41.9467 76.6132 41.64C76.4266 41.3267 76.1266 41.17 75.7132 41.17C75.4199 41.17 75.1299 41.24 74.8432 41.38C74.5632 41.52 74.3166 41.7133 74.1032 41.96C73.8966 42.2 73.7466 42.4733 73.6532 42.78V46H73.1532V40.8H73.6232V42.04C73.7632 41.7733 73.9499 41.5433 74.1832 41.35C74.4166 41.15 74.6766 40.9933 74.9632 40.88C75.2499 40.7667 75.5466 40.71 75.8532 40.71C76.1399 40.71 76.3799 40.7633 76.5732 40.87C76.7732 40.97 76.9332 41.1167 77.0532 41.31C77.1799 41.5033 77.2699 41.7433 77.3232 42.03C77.3766 42.3167 77.4032 42.6433 77.4032 43.01V46ZM81.225 46.1C80.8583 46.1 80.5183 46.03 80.205 45.89C79.8916 45.7433 79.6183 45.5467 79.385 45.3C79.1583 45.0467 78.9783 44.7567 78.845 44.43C78.7183 44.0967 78.655 43.7467 78.655 43.38C78.655 42.8867 78.765 42.44 78.985 42.04C79.205 41.64 79.5083 41.32 79.895 41.08C80.2816 40.8333 80.715 40.71 81.195 40.71C81.6883 40.71 82.125 40.8333 82.505 41.08C82.885 41.3267 83.185 41.6533 83.405 42.06C83.6316 42.46 83.745 42.9 83.745 43.38C83.745 43.42 83.745 43.46 83.745 43.5C83.745 43.54 83.7416 43.5733 83.735 43.6H79.175C79.2016 43.9933 79.3116 44.35 79.505 44.67C79.6983 44.99 79.945 45.2433 80.245 45.43C80.5516 45.61 80.885 45.7 81.245 45.7C81.605 45.7 81.945 45.6067 82.265 45.42C82.585 45.2333 82.8083 44.9933 82.935 44.7L83.375 44.82C83.275 45.0667 83.115 45.2867 82.895 45.48C82.6816 45.6733 82.4283 45.8267 82.135 45.94C81.8483 46.0467 81.545 46.1 81.225 46.1ZM79.155 43.21H83.265C83.2383 42.8033 83.1316 42.4433 82.945 42.13C82.7583 41.8167 82.5116 41.57 82.205 41.39C81.905 41.21 81.5716 41.12 81.205 41.12C80.8383 41.12 80.505 41.21 80.205 41.39C79.905 41.57 79.6616 41.8167 79.475 42.13C79.2883 42.4433 79.1816 42.8033 79.155 43.21ZM87.405 41.25C86.9384 41.2633 86.5284 41.4033 86.175 41.67C85.8284 41.93 85.585 42.29 85.445 42.75V46H84.945V40.8H85.425V42.08C85.605 41.7133 85.845 41.4167 86.145 41.19C86.445 40.9567 86.7617 40.8233 87.095 40.79C87.1617 40.7833 87.2217 40.78 87.275 40.78C87.3284 40.78 87.3717 40.78 87.405 40.78V41.25Z" fill="white"/>
</svg>
